#!OML:ASF F:\VICON\USERDATA\INSTALL\rory3\rory3.ASF
:FULLY-SPECIFIED
:DEGREES
31
root 0.10372736813240002 18.24279740749159 4.924016119237798 -2.3640084914582884 1.412687422675118 -3.3264951237023
lfemur -6.7106983901014985 2.0279337481016593 -15.561374535802681
ltibia 62.02860871481094
lfoot 8.78042405282092 -17.264134118676775
ltoes 5.2691222850358415
rfemur -10.561500016948575 5.498855206413894 28.417229885259044
rtibia 28.18425187010863
rfoot -9.961829861934385 -3.844048061165657
rtoes 8.492244175644032
lowerback nan -0.8915167009917777 2.061708002647123
upperback 0.13394461063460394 -0.8118961100624567 2.318739239452405
thorax -5.223595334205149 -0.4386941316192783 1.5174746004109236
lowerneck -16.016875544528848 -2.9922583084227243 -1.924289473287409
upperneck 22.18258330700738 -3.728296518781183 -0.24165365133510186
head 9.666753360109851 -1.9254457072807782 -0.28136988307145133
lclavicle -2.223133437224835e-15 -2.6293011927727803e-15
lhumerus -28.380893919793238 2.2738250610488646 81.4588439952648
lradius 28.156828086878278
lwrist 7.0462549001931585
lhand -28.160021237924077 21.742639146510257
lfingers nan
lthumb -1.3872972922285878 52.17535048726887
rclavicle -2.2407861806631316e-15 -2.510260262335981e-15
rhumerus -29.48983141904216 -23.0447221288732 -76.72458193313263
rradius 21.820425541903255
rwrist 7.149283727521231
rhand -17.534190576223097 nan
rfingers nan
rthumb 8.62842482460473 -7.8445259514682295
32
root 0.07640361568307824 18.26581316646714 5.878722233314058 -2.524470280418827 0.7967462881367706 -3.6007604379160068
lfemur -12.197127516177733 4.5269139037233455 -15.297103428664625
ltibia 66.02651317054995
lfoot 2.6001920847736075 -14.369191148862086
ltoes -3.0714284956442706
rfemur -8.02639486113518 5.882692432796928 29.023765737353106
rtibia 27.958293280558713
rfoot -11.639944190523789 -3.884338218596095
rtoes 8.052489699299057
lowerback nan -0.555514642234537 2.5752222684104034
upperback 0.201394258038332 -0.31727917074431566 2.237542988406864
thorax -5.164491781670063 -0.22409632972979843 1.0912809825438
lowerneck -16.16681945356676 -3.055151496430124 -1.8578516220874193
upperneck 22.381934078108692 -3.8327620111251366 -0.2720456570024956
head 9.692525144648199 -1.9784359123446142 -0.29372801596503645
lclavicle -3.4967880943546324e-16 -2.1311664865298523e-15
lhumerus -29.937813184093656 3.094922280836201 81.56508727323101
lradius 27.611159435077617
lwrist 7.101454107262517
lhand -28.03545428525368 21.49419256651036
lfingers nan
lthumb -1.2037044758535276 52.100041848672035
rclavicle -1.2129638396990259e-15 -2.6791389969478322e-15
rhumerus -27.881063936450545 -20.636869151341415 -78.14401372013515
rradius 22.59866072862142
rwrist 5.811426406575979
rhand -17.553599588757443 nan
rfingers nan
rthumb 8.565173174459076 -7.258277667565941
33
root 0.06117248857351398 18.272616977717526 6.553425529326047 -2.5433733049455696 0.22931370805516593 -3.9528544229244185
lfemur -17.455983248267643 6.410138633644085 -15.151869478123372
ltibia 67.4905018508459
lfoot -2.0181068709833685 -11.39847963057187
ltoes -3.2762112173901343
rfemur -5.499918257170625 5.614168639128696 29.990937668146536
rtibia 27.83101093049652
rfoot -13.344405569656747 -3.8009914492810672
rtoes 7.971871509989682
lowerback nan -0.20487756970452303 3.2490587574802072
upperback 0.20782232487193164 0.23156722980364525 2.115484146527389
thorax -5.1420686315130215 0.027912440178499365 0.564998002994372
lowerneck -16.05963524126211 -3.1208782557633272 -1.7977854373919808
upperneck 22.444309856704177 -3.9117790953380465 -0.36234504931923983
head 9.721394261480661 -2.0040991867912257 -0.36240275180679316
lclavicle -1.7721351561697694e-15 -1.5715606504074768e-15
lhumerus -31.423552878252888 3.7097070246224524 81.59665200734341
lradius 27.02172492325972
lwrist 7.309881389803932
lhand -28.107171699084425 21.277947787819883
lfingers nan
lthumb -1.298483397230371 51.857541642094105
rclavicle -3.2230181308911312e-15 -2.552360900297288e-15
rhumerus -26.542334542283363 -18.04209436639453 -79.40766501687541
rradius 23.81817331737933
rwrist 3.79025927857988
rhand -17.72196535040128 nan
rfingers nan
rthumb 8.391530529582203 -7.507627100201889
34
root 0.06700325523550266 18.249802077819357 7.1701119620568345 -2.4848986707919596 -0.43639769233655223 -4.358848470294662
lfemur -21.510791544983583 7.511403785004589 -14.865266039283462
ltibia 65.7934964158487
lfoot -4.2466499719977655 -7.684067326174624
ltoes -3.136480980733196
rfemur -3.903756546225268 5.0408089318108935 30.988097746218543
rtibia 29.10531376265886
rfoot -14.633567870274387 -3.5183517908973445
rtoes 7.80624270321532
lowerback nan 0.1442429349619102 3.987899363285875
upperback 0.12409968283066611 0.8358871822194265 1.9622523368479379
thorax -5.358729661005631 0.2948271939136866 -0.1136081719369969
lowerneck -16.022212001042472 -3.1690407810196572 -1.7222107872201398
upperneck 22.410484446756808 -4.002229918799384 -0.3673807671821724
head 9.7008553916606 -2.038800126271998 -0.3606598402622964
lclavicle -2.4100109612803592e-15 -1.850647498676311e-15
lhumerus -32.77346175162927 4.452215916642068 81.52240334423276
lradius 26.376021144676024
lwrist 6.952889971862694
lhand -28.130584823037925 21.007787109648714
lfingers nan
lthumb -1.315848446166373 51.6860553140445
rclavicle -3.801930714596133e-15 -2.775921579637862e-15
rhumerus -25.08423030460312 -15.038389512702231 -80.547662756674
rradius 25.233708921821176
rwrist 1.7680499828363208
rhand -17.7707456858003 nan
rfingers nan
rthumb 8.383396755781709 -7.71738853982847
